<?xml version="1.0" standalone="no"?><!DOCTYPE svg PUBLIC "-//W3C//DTD SVG 1.1//EN" "http://www.w3.org/Graphics/SVG/1.1/DTD/svg11.dtd"><svg t="1515215401548" class="icon" style="" viewBox="0 0 1024 1024" version="1.1" xmlns="http://www.w3.org/2000/svg" p-id="2787" xmlns:xlink="http://www.w3.org/1999/xlink" width="200" height="200"><defs><style type="text/css"></style></defs><path d="M937.542 852.933c-34.691-21.747-77.323-31.723-135.339-46.138-68.055-16.9-158.887-29.187-150.928-107.524-52.899 48.607-143.68 66.111-217.444 35.841-23.449-9.625-39.206-29.598-56.278-28.161 4.749 76.301-88.009 84.508-150.931 99.845-61.123 14.899-105.126 26.574-140.166 51.37 111.868 101.805 259.909 164.465 422.667 164.465 165.548 0 315.919-64.772 428.42-169.698zM556.622 2.912c-211.295-18.192-314.537 126.238-283.953 337.941-8.357 3.58-20.621 3.253-23.023 12.798 0.573 63.434 12.476 115.521 58.836 133.126 23.084 104.169 96.652 226.135 227.673 209.932 105.823-13.083 163.779-115.839 186.747-209.932 44.547-17.993 60.508-77.302 56.278-135.683-0.955-10.14-16.988-5.187-23.023-10.24 37.953-165.823-57.716-325.733-199.536-337.942z" p-id="2788" fill="#13227a"></path></svg>