<?xml version="1.0" standalone="no"?><!DOCTYPE svg PUBLIC "-//W3C//DTD SVG 1.1//EN" "http://www.w3.org/Graphics/SVG/1.1/DTD/svg11.dtd"><svg t="1515215578132" class="icon" style="" viewBox="0 0 1024 1024" version="1.1" xmlns="http://www.w3.org/2000/svg" p-id="5935" xmlns:xlink="http://www.w3.org/1999/xlink" width="200" height="200"><defs><style type="text/css"></style></defs><path d="M946.942997 626.664529c18.977213-70.40756 20.050662-141.287887 4.427846-212.279754C898.55494 173.99173 661.760862 20.169365 422.163949 70.237691 213.803457 113.789603 63.660902 299.108309 64.09376 512.25071c-0.775666 0.107447-1.527796 0.207731-2.307555 0.313132 4.183276 31.416524 6.441713 63.252603 12.905938 94.214778 20.825304 99.67821 70.010517 183.620018 148.030451 248.37995 125.619022 104.312764 268.355911 132.800585 424.467411 86.765109 86.021166-25.364691 156.855444-75.471902 213.69294-145.193847 3.372817-4.134157 6.138814-5.691629 12.103666-4.594645 43.700291 8.030907 83.48132-21.028942 88.002286-65.040319 3.212158-31.422663-3.082198-61.97347-12.923334-91.78238C947.174264 632.553657 946.234869 629.251448 946.942997 626.664529zM889.99396 755.900939c-20.340257 1.331321-37.335327-12.408611-39.344077-33.599236-1.737574-18.207687-0.935302-36.648688-2.39249-54.882981-2.922563-36.214806-6.623861-72.384587-9.983375-108.525716-0.249687-2.617617-0.342808-5.233188-0.503467-7.843642 0.775666-0.596588 1.550309-1.197268 2.307555-1.789763 12.397355 12.295024 25.708522 23.807219 36.992519 37.060057 31.834033 37.45403 47.037293 81.371262 47.309492 130.547265C924.473239 738.057549 909.905452 754.569618 889.99396 755.900939zM918.356938 577.165162c-2.263553-2.587941-4.294816-4.699022-6.053879-6.988158-22.741957-29.865191-51.082422-53.070706-83.780125-71.060429-1.594311-0.87288-3.193739-1.729387-4.838192-2.523473-7.28287-3.494591-14.753005-4.572132-21.671579 0.313132-7.261381 5.127787-8.744151 12.790304-7.511067 21.230534 2.530636 17.541515 5.8001 35.024701 7.331989 52.636824 3.920286 45.337581 7.92039 90.727351 10.157337 136.183635 1.162476 23.579021 4.178159 45.594431 21.035082 63.209624C730.359216 906.718877 518.644327 976.992383 329.914942 881.815697c-200.965058-101.378945-283.270599-338.475921-190.58157-542.898731 91.156116-201.088878 324.685847-294.010197 531.35379-208.40654C874.535897 214.94649 947.82918 423.961898 918.356938 577.165162zM320.827983 387.035894c-6.650467-7.209192-14.642488-7.176446-23.409153-4.107551-31.187303 10.930957-60.60224 25.530466-87.161129 45.207621-37.927821 28.108175-66.010413 62.539358-70.576405 112.409163-4.111644 44.789089 28.109198 82.722026 72.816422 83.800591 39.798425 1.011027 73.04769-29.811979 75.858712-70.228481 0.868787-12.474103 1.323135-25.042349 2.922563-37.427424 4.770653-37.214577 16.072047-72.550363 31.624255-106.581434C326.533938 402.195152 327.287091 394.050658 320.827983 387.035894zM253.231445 519.807826c-2.02717 11.33107-1.37123 23.147186-2.828418 34.630728-2.557242 19.865443-19.564591 33.812083-38.662555 32.480762-20.277836-1.425466-35.115776-17.801435-34.977629-38.465057 0.13303-21.304212 7.942903-39.883359 20.575618-56.526411 16.781198-22.169929 47.219441-45.263903 72.611761-56.068993C264.329201 463.800231 258.279415 491.713978 253.231445 519.807826zM251.860215 360.686782c5.118578 0.398066 11.243065-3.836375 15.920598-7.362688 25.868157-19.521612 54.138014-31.53625 87.161129-28.355815 26.216081 2.551102 48.76975 13.948687 69.137637 30.358425 10.116405 8.16803 21.74321 7.617491 28.457122-0.765433 6.873548-8.588609 5.230118-19.85214-4.819772-28.167526-29.779234-24.644283-63.729463-38.711673-102.187357-39.822984-29.293163 0.558725-56.240909 8.368598-80.696903 23.727401-9.92914 6.249331-19.2269 13.81361-27.855418 21.820981-5.661953 5.254677-5.983271 13.594623-1.283226 19.272949C239.510956 356.004133 246.153236 360.248807 251.860215 360.686782zM784.501324 326.521658c-29.962405-24.984021-64.237023-38.950104-101.139491-39.930431-31.19242 0.632403-58.062394 8.662287-82.45699 24.071232-9.881045 6.259564-19.747763 13.443174-27.445072 22.156626-9.131985 10.350742-1.692548 27.04189 12.130272 27.746948 5.885034 0.299829 12.963243-2.88777 17.921161-6.616698 31.967062-24.078395 66.522066-36.416398 106.632599-25.462928 18.732643 5.111414 35.308157 14.44499 50.4009 26.662243 10.277064 8.28878 21.574365 7.894807 28.474518-0.38067C795.829324 346.592786 794.22171 334.662059 784.501324 326.521658zM656.606469 566.28844c-30.176276-24.77629-62.46875-35.592636-95.393627-36.07666-32.073486-0.468674-64.22372 9.042957-95.187943 25.032116C409.641751 584.355935 356.791056 635.187647 315.949882 685.372629c-6.259564 7.682983-5.131881 19.007913 2.51631 25.293059 7.649214 6.28617 18.924002 5.154393 25.182542-2.527566 38.293141-47.057759 87.334068-94.456279 138.742924-120.997772 26.072819-13.461593 52.627614-21.476127 78.402651-21.098527 24.928762 0.36532 49.65184 8.78099 73.145927 28.067242 20.786419 17.060561 40.636512 42.527582 58.913784 78.232782 4.516874 8.807596 15.292288 12.268418 24.059975 7.729032 8.771781-4.538363 12.215206-15.359826 7.697309-24.167422C703.93745 615.511515 680.986739 586.30124 656.606469 566.28844z" p-id="5936" fill="#594d9c"></path></svg>