<?xml version="1.0" standalone="no"?><!DOCTYPE svg PUBLIC "-//W3C//DTD SVG 1.1//EN" "http://www.w3.org/Graphics/SVG/1.1/DTD/svg11.dtd"><svg t="1515215461497" class="icon" style="" viewBox="0 0 1024 1024" version="1.1" xmlns="http://www.w3.org/2000/svg" p-id="3772" xmlns:xlink="http://www.w3.org/1999/xlink" width="200" height="200"><defs><style type="text/css"></style></defs><path d="M218.296 962c-69.627 0-126.28-56.525-126.28-126s56.653-126 126.28-126c69.627 0 126.28 56.525 126.28 126s-56.653 126-126.28 126zM218.296 756.742c-43.854 0-79.527 35.557-79.527 79.247s35.673 79.258 79.527 79.258c43.842 0 79.527-35.557 79.527-79.247s-35.673-79.258-79.527-79.258z" p-id="3773" fill="#d81e06"></path><path d="M801.426 962c-69.639 0-126.292-56.525-126.292-126s56.653-126 126.292-126c69.627 0 126.28 56.525 126.28 126s-56.653 126-126.28 126zM801.426 756.742c-43.854 0-79.539 35.557-79.539 79.247s35.684 79.258 79.539 79.258 79.527-35.557 79.527-79.247-35.673-79.258-79.527-79.258z" p-id="3774" fill="#d81e06"></path><path d="M515.109 758.249c-153.538 0-166.29-111.238-166.394-112.348-1.262-12.858 8.123-24.289 20.969-25.562 12.717-1.298 24.148 7.995 25.539 20.723 0.432 3.412 10.496 70.422 119.888 70.422 109.858 0 119.548-67.593 119.91-70.469 1.578-12.693 12.951-21.833 25.808-20.501 12.717 1.414 21.939 12.647 20.689 25.375-0.128 1.146-12.88 112.359-166.407 112.359z" p-id="3775" fill="#d81e06"></path><path d="M752.042 446.042c-11.689 0-21.775-8.754-23.178-20.642-2.677-22.138-16.177-70.632-38.922-70.632-22.582 0-34.691 48.121-36.759 70.083-1.216 12.858-12.448 22.231-25.469 21.086-12.858-1.204-22.29-12.611-21.086-25.458 3.927-41.774 25.89-112.464 83.302-112.464 57.039 0 80.497 70.363 85.359 111.927 1.508 12.822-7.668 24.428-20.501 25.937-0.923 0.117-1.836 0.163-2.747 0.163z" p-id="3776" fill="#d81e06"></path><path d="M434.763 446.042c-11.689 0-21.775-8.742-23.178-20.618v0c-2.677-22.138-16.177-70.643-38.922-70.643-22.57 0-34.691 48.121-36.759 70.083-1.216 12.858-12.611 22.29-25.458 21.086-12.858-1.204-22.301-12.611-21.086-25.458 3.916-41.774 25.878-112.464 83.302-112.464 57.027 0 80.486 70.363 85.348 111.927 1.496 12.822-7.679 24.428-20.501 25.937-0.923 0.105-1.847 0.152-2.747 0.152z" p-id="3777" fill="#d81e06"></path><path d="M675.133 836c0-5.353 0.443-10.59 1.088-15.757-50.073 25.164-106.562 39.425-166.372 39.425-59.797 0-116.288-14.259-166.359-39.425 0.642 5.178 1.087 10.414 1.087 15.757 0 11.863-1.753 23.295-4.804 34.177 52.001 23.213 109.531 36.233 170.089 36.233 60.558 0 118.087-13.021 170.089-36.233-3.062-10.882-4.816-22.325-4.816-34.177z" p-id="3778" fill="#d81e06"></path><path d="M211.984 710.035c-45.97-61.609-73.216-137.887-73.216-220.407 0-204.042 166.464-370.041 371.092-370.041 204.627 0 371.092 165.998 371.092 370.041 0 82.52-27.246 158.797-73.216 220.407 17.358 0.865 33.757 5.19 48.565 12.367 45.058-66.507 71.392-146.63 71.392-232.773 0-229.816-187.446-416.793-417.846-416.793s-417.833 186.967-417.833 416.782c0 86.142 26.333 166.267 71.392 232.773 14.821-7.164 31.22-11.501 48.577-12.354z" p-id="3779" fill="#d81e06"></path></svg>